<svg xmlns="http://www.w3.org/2000/svg" xmlns:xlink="http://www.w3.org/1999/xlink" width="32" height="32" viewBox="0 0 32 32" fill="none"><path d="M13.0869 17.8994C13.7388 17.899 14.3904 17.8986 15.0423 17.8994C15.0412 21.3241 15.0423 24.7488 15.0416 28.1731C13.8947 28.1773 12.7478 28.1739 11.6009 28.175C11.2323 28.1651 10.8576 28.2072 10.4946 28.1223C9.72625 27.9656 9.05307 27.4844 8.57635 26.8719C8.21225 26.4209 8.00216 25.8627 7.89785 25.2972C7.79357 24.7067 7.80569 24.098 7.90316 23.5078C8.09128 22.8586 8.42919 22.2457 8.91085 21.7678C9.31325 21.3658 9.81463 21.0658 10.357 20.8959C10.5754 20.8288 10.8011 20.7711 11.0313 20.773C11.7162 20.7745 12.4016 20.7734 13.0869 20.7734C13.088 19.8154 13.0876 18.8574 13.0869 17.8994ZM10.9153 22.5555C10.5201 22.7376 10.1507 23.0266 9.96253 23.4278C9.83207 23.7794 9.76797 24.1556 9.75925 24.5303C9.7566 24.9854 9.89391 25.444 10.1526 25.819C10.4571 26.2567 10.9858 26.5393 11.5221 26.5165C12.0454 26.515 12.5685 26.5169 13.0915 26.5157C13.0926 25.155 13.0926 23.7942 13.0915 22.4334C12.5058 22.4319 11.9203 22.4342 11.3351 22.4319C11.1856 22.4289 11.0499 22.5005 10.9153 22.5555ZM16.0975 20.9255C16.7467 20.9251 17.3964 20.9251 18.0461 20.9255C18.048 22.5199 18.0457 24.1143 18.0472 25.7087C18.0476 25.9105 18.1053 26.1198 18.2429 26.2723C18.3935 26.4399 18.6233 26.5157 18.8444 26.5161C19.5309 26.5161 20.2177 26.5161 20.9042 26.5157C20.905 24.6532 20.9057 22.7907 20.9038 20.9285C21.5539 20.9217 22.2043 20.9259 22.8547 20.9262C22.8543 23.3429 22.8547 25.7591 22.8543 28.1754C21.2777 28.1796 19.7012 28.1769 18.1246 28.1769C17.6244 28.1318 17.1226 27.9516 16.7441 27.6141C16.3185 27.2326 16.0724 26.6565 16.0967 26.0849C16.0978 24.3654 16.0963 22.6454 16.0975 20.9255Z"   fill="#FCFBFF" ></path><path d="M12.2256 0.927156C12.8241 0.824377 13.4491 0.983287 13.952 1.31589C14.7367 1.83169 15.2548 2.66985 15.5521 3.54558C16.0076 4.91737 15.981 6.4503 15.4603 7.80049C15.1975 8.46343 14.8054 9.08921 14.2558 9.5519C13.8121 9.92774 13.2496 10.1822 12.6621 10.1947C12.0804 10.2148 11.51 9.99449 11.0518 9.64368C10.3214 9.07971 9.84427 8.24384 9.57689 7.37152C9.18702 6.0703 9.22264 4.63937 9.69861 3.36542C9.98877 2.60462 10.4503 1.88668 11.1159 1.40313C11.4444 1.16495 11.8244 0.993527 12.2256 0.927156ZM20.9869 1.60793C21.4079 1.51728 21.8395 1.63296 22.2187 1.81652C22.7565 2.07631 23.2131 2.48288 23.5822 2.94899C24.0968 3.60548 24.4541 4.39359 24.5629 5.2234C24.6467 5.80065 24.5535 6.38621 24.3919 6.94184C24.1981 7.61199 23.9038 8.25596 23.5048 8.8294C23.1551 9.3289 22.7194 9.77909 22.1888 10.087C21.698 10.373 21.123 10.5194 20.5545 10.4811C19.8597 10.4356 19.1566 10.197 18.6438 9.71309C18.1269 9.23371 17.8341 8.55937 17.6995 7.87746C17.5569 7.15309 17.561 6.40634 17.6468 5.67549C17.7405 5.02809 18.0139 4.42052 18.3457 3.86186C18.6962 3.28348 19.127 2.74912 19.6447 2.31145C20.0338 1.98529 20.4836 1.70919 20.9869 1.60793ZM5.2465 7.82968C5.88214 7.71287 6.54964 7.84637 7.11208 8.15812C7.94264 8.61627 8.58627 9.37062 9.0008 10.216C9.16842 10.5661 9.29736 10.9392 9.33264 11.328C9.43617 12.3019 9.4157 13.3054 9.13505 14.2501C8.94505 14.8919 8.60827 15.5036 8.1008 15.9481C7.47352 16.5049 6.62586 16.7749 5.79567 16.7863C5.10125 16.7965 4.41178 16.5386 3.88953 16.082C3.19965 15.4843 2.77109 14.6347 2.54619 13.7609C2.39865 13.1677 2.33001 12.545 2.42748 11.9382C2.5697 10.9241 2.86666 9.90727 3.45034 9.05505C3.86903 8.44371 4.50353 7.95409 5.2465 7.82968ZM25.6909 10.0703C26.4482 9.9759 27.2473 10.0791 27.9216 10.4515C28.5448 10.7898 29.0333 11.3416 29.3605 11.9655C29.6317 12.4858 29.8191 13.0562 29.8688 13.6426C29.8961 14.48 29.9097 15.328 29.7334 16.1518C29.6105 16.7275 29.3958 17.2967 29.0238 17.7595C28.673 18.2036 28.1723 18.521 27.627 18.6663C27.0789 18.8176 26.5025 18.8214 25.9396 18.7751C25.2706 18.7121 24.5906 18.5233 24.057 18.0996C23.5879 17.734 23.2712 17.2019 23.0997 16.6376C22.8669 15.8802 22.8445 15.0785 22.8582 14.2923C22.882 13.4689 22.9974 12.6338 23.3273 11.8733C23.573 11.3048 23.969 10.7868 24.5068 10.4678C24.8648 10.2467 25.2755 10.1242 25.6909 10.0703ZM15.5225 13.1025C16.2871 13.0111 17.0741 13.1465 17.7696 13.4757C18.8498 13.9832 19.6849 14.8919 20.322 15.8825C21.1158 17.0275 22.0458 18.072 23.0209 19.0649C23.9481 19.9986 24.9179 20.891 25.9324 21.7295C26.1016 21.874 26.2836 22.0041 26.438 22.1653C27.2052 22.9496 27.6755 24.0074 27.7749 25.0974C27.8852 26.2526 27.6072 27.4135 27.1396 28.4648C26.7884 29.237 26.1835 29.8893 25.4349 30.2894C24.3995 30.8492 23.1923 30.9835 22.0325 30.9414C20.9042 30.8947 19.7843 30.6876 18.7079 30.3474C17.3999 29.9932 16.0216 29.8927 14.6756 30.0539C14.0484 30.1233 13.44 30.2985 12.8173 30.3948C11.414 30.6251 9.98458 30.7028 8.56502 30.6095C7.38589 30.5739 6.24927 29.9781 5.51427 29.0606C5.05953 28.5016 4.74284 27.8413 4.5335 27.1548C4.33781 26.515 4.21796 25.8449 4.25096 25.174C4.28319 24.3821 4.51834 23.6046 4.90175 22.9124C5.47215 21.8733 6.33574 21.0286 7.26986 20.3138C7.53608 20.101 7.83305 19.922 8.05945 19.6641C8.4998 19.256 8.96399 18.8745 9.39674 18.4584C10.2125 17.6866 10.9654 16.842 11.5809 15.9003C11.7576 15.6348 11.9067 15.3508 12.1031 15.0986C12.925 14.0268 14.1705 13.2542 15.5225 13.1025ZM13.0869 17.8994C13.0877 18.8574 13.088 19.8154 13.0869 20.7734C12.4016 20.7734 11.7163 20.7746 11.0313 20.7731C10.8011 20.7711 10.5755 20.8288 10.357 20.8959C9.81467 21.0658 9.3133 21.3658 8.91089 21.7678C8.42924 22.2457 8.09133 22.8586 7.9032 23.5079C7.80574 24.098 7.79361 24.7067 7.89789 25.2972C8.0022 25.8627 8.2123 26.421 8.57639 26.8719C9.05311 27.4844 9.7263 27.9657 10.4947 28.1223C10.8576 28.2073 11.2323 28.1652 11.601 28.1751C12.7479 28.1739 13.8947 28.1773 15.0416 28.1731C15.0424 24.7488 15.0412 21.3241 15.0424 17.8994C14.3904 17.8986 13.7389 17.899 13.0869 17.8994ZM16.0975 20.9255C16.0963 22.6455 16.0979 24.3654 16.0967 26.085C16.0725 26.6565 16.3186 27.2326 16.7441 27.6141C17.1226 27.9517 17.6244 28.1318 18.1246 28.1769C19.7012 28.1769 21.2778 28.1796 22.8544 28.1754C22.8547 25.7592 22.8544 23.3429 22.8547 20.9263C22.2043 20.9259 21.5539 20.9217 20.9038 20.9286C20.9057 22.7907 20.905 24.6532 20.9042 26.5158C20.2178 26.5162 19.5309 26.5162 18.8445 26.5162C18.6234 26.5158 18.3935 26.4399 18.243 26.2723C18.1053 26.1198 18.0476 25.9105 18.0473 25.7087C18.0457 24.1143 18.048 22.5199 18.0461 20.9255C17.3965 20.9251 16.7468 20.9251 16.0975 20.9255Z"   fill="#306CFF" ></path><path d="M10.9153 22.5555C11.0499 22.5005 11.1857 22.4289 11.3352 22.4319C11.9203 22.4342 12.5059 22.4319 13.0915 22.4334C13.0926 23.7942 13.0926 25.1549 13.0915 26.5157C12.5685 26.5169 12.0455 26.515 11.5221 26.5165C10.9858 26.5393 10.4572 26.2567 10.1526 25.819C9.89397 25.4439 9.75666 24.9854 9.75932 24.5303C9.76803 24.1556 9.83213 23.7794 9.9626 23.4278C10.1507 23.0265 10.5201 22.7376 10.9153 22.5555Z"   fill="#306CFF" ></path></svg>